<svg width="64" height="64" viewBox="0 0 64 64" fill="none" xmlns="http://www.w3.org/2000/svg">
<circle cx="32" cy="32" r="32" fill="#751A9B"/>
<path d="M38.0519 24.1285H42.7154L37.8071 19.3077V23.884C37.8071 24.0187 37.9169 24.1285 38.0519 24.1285Z" fill="white"/>
<path d="M38.0521 25.6666C37.0692 25.6666 36.2694 24.8669 36.2694 23.884V18.8613H23.4808C21.8985 18.8613 20.6113 20.1485 20.6113 21.7308V42.2418C20.6113 43.8241 21.8985 45.1113 23.4808 45.1113H40.3004C41.8829 45.1113 43.1699 43.8241 43.1699 42.2418V25.6666H38.0521ZM36.2942 38.7539H26.3888C25.964 38.7539 25.6197 38.4096 25.6197 37.9849C25.6197 37.5601 25.964 37.2158 26.3888 37.2158H36.2942C36.7191 37.2158 37.0632 37.5601 37.0632 37.9849C37.0632 38.4096 36.7191 38.7539 36.2942 38.7539ZM25.6197 34.9087C25.6197 34.484 25.964 34.1396 26.3888 34.1396H35.228C35.6528 34.1396 35.997 34.484 35.997 34.9087C35.997 35.3334 35.6525 35.6777 35.228 35.6777H26.3888C25.964 35.6777 25.6197 35.3334 25.6197 34.9087ZM37.2294 32.6016H26.3888C25.964 32.6016 25.6197 32.2573 25.6197 31.8325C25.6197 31.4078 25.964 31.0635 26.3888 31.0635H37.2294C37.6541 31.0635 37.9984 31.4078 37.9984 31.8325C37.9984 32.2573 37.6541 32.6016 37.2294 32.6016Z" fill="white"/>
</svg>
