<svg width="64" height="64" viewBox="0 0 64 64" fill="none" xmlns="http://www.w3.org/2000/svg">
<circle cx="32" cy="32" r="32" fill="#751A9B"/>
<g clip-path="url(#clip0_326_23)">
<path d="M35.5002 25.5833C34.8562 25.5833 34.3335 25.0606 34.3335 24.4166V22.6666H29.6668V24.4166C29.6668 25.0606 29.1442 25.5833 28.5002 25.5833C27.8562 25.5833 27.3335 25.0606 27.3335 24.4166V22.6666C27.3335 21.3798 28.38 20.3333 29.6668 20.3333H34.3335C35.6203 20.3333 36.6668 21.3798 36.6668 22.6666V24.4166C36.6668 25.0606 36.1442 25.5833 35.5002 25.5833Z" fill="white"/>
<path d="M32.8283 35.9433C32.6183 36.025 32.315 36.0833 32 36.0833C31.685 36.0833 31.3817 36.025 31.1017 35.92L18 31.5566V40.4583C18 42.2316 19.435 43.6666 21.2083 43.6666H42.7917C44.565 43.6666 46 42.2316 46 40.4583V31.5566L32.8283 35.9433Z" fill="white"/>
<path d="M46 27.0416V29.7133L32.28 34.2866C32.1867 34.3216 32.0933 34.3333 32 34.3333C31.9067 34.3333 31.8133 34.3216 31.72 34.2866L18 29.7133V27.0416C18 25.2683 19.435 23.8333 21.2083 23.8333H42.7917C44.565 23.8333 46 25.2683 46 27.0416Z" fill="white"/>
</g>
<defs>
<clipPath id="clip0_326_23">
<rect width="28" height="28" fill="white" transform="translate(18 18)"/>
</clipPath>
</defs>
</svg>
