<svg width="64" height="64" viewBox="0 0 64 64" fill="none" xmlns="http://www.w3.org/2000/svg">
<circle cx="32" cy="32" r="32" fill="#751A9B"/>
<g clip-path="url(#clip0_326_28)">
<path d="M18.8202 44.085H20.4607C20.9137 44.085 21.281 43.7178 21.281 43.2648V34.2421H18.8202C18.3673 34.2421 18 34.6093 18 35.0623V43.2648C18 43.7177 18.3673 44.085 18.8202 44.085Z" fill="white"/>
<path d="M39.436 19.4775C35.8119 19.4775 32.874 22.4154 32.874 26.0395C32.874 29.6635 35.8119 32.6015 39.436 32.6015C43.0601 32.6015 45.998 29.6635 45.998 26.0395C45.998 22.4154 43.0601 19.4775 39.436 19.4775ZM40.8106 28.9916C40.633 29.0804 40.4467 29.1504 40.2561 29.2033V29.43C40.2561 29.883 39.8889 30.2502 39.4359 30.2502C38.9829 30.2502 38.6156 29.883 38.6156 29.43V29.229C38.2742 29.143 37.9558 28.9985 37.686 28.7962C37.3236 28.5244 37.2501 28.0103 37.522 27.6479C37.7938 27.2855 38.3079 27.212 38.6703 27.4838C38.9984 27.7299 39.6295 27.7481 40.0769 27.5244C40.2568 27.4344 40.3539 27.3262 40.3539 27.27C40.3539 27.1718 40.3539 27.1567 40.2447 27.0985C40.0307 26.9842 39.6523 26.914 39.2863 26.8461C38.7977 26.7555 38.2925 26.6618 37.8547 26.4281C37.2154 26.0869 36.8774 25.5271 36.8774 24.8093C36.8774 24.0906 37.3084 23.463 38.0598 23.0873C38.2379 22.9982 38.4246 22.9277 38.6156 22.8747V22.6493C38.6156 22.1963 38.9829 21.829 39.4359 21.829C39.8889 21.829 40.2561 22.1963 40.2561 22.6493V22.8501C40.5976 22.9361 40.916 23.0808 41.1857 23.283C41.5482 23.5549 41.6216 24.069 41.3498 24.4314C41.078 24.7938 40.5639 24.8673 40.2015 24.5954C39.8729 24.349 39.2413 24.3307 38.7934 24.5545C38.6125 24.645 38.5179 24.7511 38.5179 24.8092C38.5179 24.9074 38.5179 24.9225 38.6271 24.9808C38.8411 25.095 39.2196 25.1652 39.5855 25.2331C40.0741 25.3238 40.5793 25.4175 41.0172 25.6512C41.6564 25.9924 41.9943 26.5522 41.9943 27.27C41.9944 27.9879 41.5629 28.6155 40.8106 28.9916Z" fill="white"/>
<path d="M32.8081 44.5225H32.9886C35.7446 44.4896 38.3858 43.7078 40.7154 42.2968L45.2923 39.0979C46.0633 38.5565 46.211 37.5395 45.7024 36.8176C45.1775 36.063 44.1604 35.8826 43.4221 36.4075L39.0256 39.4916C37.6148 40.3119 35.8923 40.4923 34.3338 39.9673L29.2756 38.294C28.8491 38.1628 28.6194 37.687 28.7671 37.2606C28.8983 36.8504 29.3248 36.6208 29.7513 36.7356C29.7677 36.7356 35.4329 38.573 35.4329 38.573C36.3869 38.8589 37.2345 38.3191 37.4999 37.5231C37.7787 36.6535 37.303 35.7349 36.45 35.456L28.7342 32.9297C27.0466 32.3153 24.7724 32.4422 22.9214 33.4773V42.6598L29.3576 44.1178C30.5366 44.3772 31.6935 44.5225 32.8081 44.5225Z" fill="white"/>
</g>
<defs>
<clipPath id="clip0_326_28">
<rect width="28" height="28" fill="white" transform="translate(18 18)"/>
</clipPath>
</defs>
</svg>
