<svg width="20" height="20" viewBox="0 0 20 20" fill="none" xmlns="http://www.w3.org/2000/svg">
<g clip-path="url(#clip0_194_322)">
<path d="M9.15445 20C10.6637 20 11.9262 18.9241 12.2161 17.5H6.09277C6.38284 18.9241 7.64536 20 9.15445 20Z" fill="black" fill-opacity="0.3"/>
<path d="M14.9975 9.99924C14.9941 9.99924 14.9908 10 14.9874 10C11.7716 10 9.15411 7.38327 9.15411 4.16672C9.15411 3.28247 9.35751 2.44659 9.71167 1.69495C9.52826 1.67755 9.34241 1.66672 9.15411 1.66672C5.93253 1.66672 3.32083 4.27826 3.32083 7.5V9.8233C3.32083 11.4725 2.59833 13.0292 1.33078 14.1008C0.908264 14.4617 0.720734 15.0366 0.872406 15.5975C1.0491 16.25 1.69409 16.6667 2.37082 16.6667H15.9333C16.6433 16.6667 17.3125 16.2067 17.4566 15.5109C17.5683 14.9725 17.3766 14.435 16.9591 14.0842C15.7474 13.0684 15.0466 11.5758 14.9975 9.99924Z" fill="black" fill-opacity="0.3"/>
<path d="M19.1536 4.16672C19.1536 6.4679 17.2882 8.33328 14.9869 8.33328C12.6857 8.33328 10.8203 6.4679 10.8203 4.16672C10.8203 1.86554 12.6857 0 14.9869 0C17.2882 0 19.1536 1.86554 19.1536 4.16672Z" fill="#7C2B91"/>
</g>
<defs>
<clipPath id="clip0_194_322">
<rect width="20" height="20" fill="white"/>
</clipPath>
</defs>
</svg>
