<svg width="32" height="32" viewBox="0 0 32 32" fill="none" xmlns="http://www.w3.org/2000/svg">
<g clip-path="url(#clip0_349_2)">
<path d="M31.0852 4.37467C30.6144 3.90311 29.8506 3.9023 29.3798 4.37267L14.9115 18.8028L9.69141 13.1332C9.24035 12.6436 8.47772 12.6119 7.98728 13.0629C7.49722 13.5139 7.46585 14.2769 7.91691 14.767L13.9873 21.3595C14.2096 21.6012 14.5207 21.7415 14.8488 21.7483C14.8576 21.7487 14.8661 21.7487 14.8745 21.7487C15.1933 21.7487 15.5 21.622 15.726 21.3969L31.0828 6.08036C31.5547 5.61005 31.5555 4.84624 31.0852 4.37467Z" fill="url(#paint0_linear_349_2)"/>
<path d="M30.7939 14.7939C30.1278 14.7939 29.5879 15.3338 29.5879 16C29.5879 23.4927 23.4927 29.5879 16 29.5879C8.50775 29.5879 2.41206 23.4927 2.41206 16C2.41206 8.50775 8.50775 2.41206 16 2.41206C16.6661 2.41206 17.2061 1.87219 17.2061 1.20606C17.2061 0.539875 16.6661 0 16 0C7.1775 0 0 7.1775 0 16C0 24.8221 7.1775 32 16 32C24.8221 32 32 24.8221 32 16C32 15.3339 31.4601 14.7939 30.7939 14.7939Z" fill="url(#paint1_linear_349_2)"/>
</g>
<defs>
<linearGradient id="paint0_linear_349_2" x1="19.5177" y1="4.02045" x2="19.5177" y2="21.7487" gradientUnits="userSpaceOnUse">
<stop stop-color="#491161"/>
<stop offset="1" stop-color="#FF1F9D"/>
</linearGradient>
<linearGradient id="paint1_linear_349_2" x1="16" y1="0" x2="16" y2="32" gradientUnits="userSpaceOnUse">
<stop stop-color="#491161"/>
<stop offset="1" stop-color="#FF1F9D"/>
</linearGradient>
<clipPath id="clip0_349_2">
<rect width="32" height="32" fill="white"/>
</clipPath>
</defs>
</svg>
