<svg width="40" height="40" viewBox="0 0 40 40" fill="none" xmlns="http://www.w3.org/2000/svg">
<rect width="40" height="40" rx="8" fill="#F8F9FB"/>
<path d="M24.5946 21.7017C23.3435 21.7017 22.3257 22.7195 22.3257 23.9706C22.3257 25.2217 23.3435 26.2395 24.5946 26.2395C25.8459 26.2395 26.8635 25.2217 26.8635 23.9706C26.8635 22.7195 25.8457 21.7017 24.5946 21.7017ZM24.5946 25.105C23.969 25.105 23.4601 24.5962 23.4601 23.9706C23.4601 23.3449 23.969 22.8361 24.5946 22.8361C25.2202 22.8361 25.7291 23.3449 25.7291 23.9706C25.7291 24.5962 25.2202 25.105 24.5946 25.105Z" fill="#7C2B91"/>
<path d="M16.8424 21.7017C15.5913 21.7017 14.5735 22.7195 14.5735 23.9706C14.5735 25.2217 15.5913 26.2395 16.8424 26.2395C18.0935 26.2395 19.1113 25.2217 19.1113 23.9706C19.1113 22.7195 18.0935 21.7017 16.8424 21.7017ZM16.8424 25.105C16.2168 25.105 15.7079 24.5962 15.7079 23.9706C15.7079 23.3449 16.2168 22.8361 16.8424 22.8361C17.4679 22.8361 17.9769 23.3449 17.9769 23.9706C17.9769 24.5962 17.468 25.105 16.8424 25.105Z" fill="#7C2B91"/>
<path d="M26.1225 15.2074C26.0261 15.0159 25.83 14.895 25.6156 14.895H22.6282V16.0295H25.2658L26.8103 19.1016L27.8242 18.5918L26.1225 15.2074Z" fill="#7C2B91"/>
<path d="M22.8928 23.4224H18.6008V24.5568H22.8928V23.4224Z" fill="#7C2B91"/>
<path d="M15.1407 23.4224H13.1744C12.8611 23.4224 12.6072 23.6763 12.6072 23.9896C12.6072 24.3029 12.8611 24.5568 13.1744 24.5568H15.1408C15.4541 24.5568 15.708 24.3029 15.708 23.9896C15.708 23.6763 15.4541 23.4224 15.1407 23.4224Z" fill="#7C2B91"/>
<path d="M28.8809 19.9546L27.7652 18.5176C27.658 18.3792 27.4925 18.2983 27.3173 18.2983H23.1954V14.3277C23.1954 14.0144 22.9415 13.7605 22.6282 13.7605H13.1744C12.8611 13.7605 12.6072 14.0144 12.6072 14.3277C12.6072 14.641 12.8611 14.8949 13.1744 14.8949H22.0609V18.8655C22.0609 19.1788 22.3149 19.4327 22.6282 19.4327H27.0395L27.8656 20.4968V23.4222H26.2962C25.9829 23.4222 25.729 23.6761 25.729 23.9894C25.729 24.3027 25.9829 24.5566 26.2962 24.5566H28.4328C28.7461 24.5566 29 24.3027 29 23.9894V20.3025C29 20.1766 28.958 20.0541 28.8809 19.9546Z" fill="#7C2B91"/>
<path d="M15.103 20.5483H12.4937C12.1804 20.5483 11.9265 20.8023 11.9265 21.1156C11.9265 21.4289 12.1804 21.6828 12.4937 21.6828H15.103C15.4163 21.6828 15.6702 21.4288 15.6702 21.1156C15.6702 20.8023 15.4163 20.5483 15.103 20.5483Z" fill="#7C2B91"/>
<path d="M16.4076 18.3171H11.5672C11.2539 18.3171 11 18.5711 11 18.8844C11 19.1977 11.2539 19.4516 11.5672 19.4516H16.4076C16.7209 19.4516 16.9748 19.1977 16.9748 18.8844C16.9748 18.5711 16.7209 18.3171 16.4076 18.3171Z" fill="#7C2B91"/>
<path d="M17.3341 16.0862H12.4937C12.1804 16.0862 11.9265 16.3401 11.9265 16.6534C11.9265 16.9667 12.1804 17.2206 12.4937 17.2206H17.3341C17.6474 17.2206 17.9013 16.9667 17.9013 16.6534C17.9013 16.3401 17.6474 16.0862 17.3341 16.0862Z" fill="#7C2B91"/>
</svg>
