<svg width="512" height="512" viewBox="0 0 512 512" fill="none" xmlns="http://www.w3.org/2000/svg">
<path d="M440.256 136.592C436.352 128.21 431.05 120.554 424.576 113.952L350.048 39.424C334.967 24.5445 314.673 16.14 293.488 16H144C122.79 16.0254 102.457 24.4621 87.4595 39.4595C72.4621 54.4569 64.0254 74.7905 64 96V416C64.0254 437.21 72.4621 457.543 87.4595 472.54C102.457 487.538 122.79 495.975 144 496H368C389.21 495.975 409.543 487.538 424.54 472.54C439.538 457.543 447.975 437.21 448 416V170.512C447.922 158.776 445.279 147.199 440.256 136.592ZM393.376 128H352C347.757 128 343.687 126.314 340.686 123.314C337.686 120.313 336 116.243 336 112V70.624L393.376 128ZM416 416C416 428.73 410.943 440.939 401.941 449.941C392.939 458.943 380.73 464 368 464H144C131.27 464 119.061 458.943 110.059 449.941C101.057 440.939 96 428.73 96 416V96C96 83.2696 101.057 71.0606 110.059 62.0589C119.061 53.0571 131.27 48 144 48H293.488C297.029 48.0314 300.555 48.4608 304 49.28V112C304 124.73 309.057 136.939 318.059 145.941C327.061 154.943 339.27 160 352 160H414.72C415.539 163.445 415.969 166.971 416 170.512V416Z" fill="black"/>
</svg>
