<svg width="72" height="72" viewBox="0 0 72 72" fill="none" xmlns="http://www.w3.org/2000/svg">
<path d="M64.7383 17.9451H20.3008C17.8195 17.9451 15.8008 19.9638 15.8008 22.4451V24.9764H8.91016C7.99286 24.9764 7.36328 25.606 7.36328 26.3826C7.36328 27.1593 7.99286 27.7889 8.76953 27.7889H15.8008V30.6014C15.8008 31.3781 16.4304 32.0076 17.207 32.0076C17.9837 32.0076 18.6133 31.3781 18.6133 30.6014V22.5732L32.646 34.5011L18.6133 49.6132V39.0389C18.6133 38.2623 17.9837 37.6326 17.207 37.6326C16.4304 37.6326 15.8008 38.2623 15.8008 39.0389V47.4764H11.582C10.8054 47.4764 10.1758 48.1061 10.1758 48.8826C10.1758 49.6592 10.8054 50.2889 11.582 50.2889H15.8105C15.9563 52.6396 17.914 54.5076 20.3008 54.5076H64.7383C67.2196 54.5076 69.2383 52.489 69.2383 50.0076V22.4451C69.2383 19.9639 67.2196 17.9451 64.7383 17.9451ZM52.3931 34.5011L66.4258 22.5732V49.6132L52.3931 34.5011ZM20.82 20.7576H64.2192L42.5195 39.2024L20.82 20.7576ZM41.6088 42.1196C42.1341 42.566 42.9053 42.5659 43.4304 42.1196L50.2481 36.3244L64.5209 51.6951H20.518L34.7909 36.3243L41.6088 42.1196Z" fill="url(#paint0_linear_349_24)"/>
<path d="M11.582 43.2576C11.582 42.4811 10.9525 41.8514 10.1758 41.8514H4.55078C3.77411 41.8514 3.14453 42.4811 3.14453 43.2576C3.14453 44.0342 3.77411 44.6639 4.55078 44.6639H10.1758C10.9525 44.6639 11.582 44.0343 11.582 43.2576Z" fill="url(#paint1_linear_349_24)"/>
<path d="M5.95703 40.4451H12.9883C13.765 40.4451 14.3945 39.8154 14.3945 39.0389C14.3945 38.2623 13.765 37.6326 12.9883 37.6326H5.95703C5.18036 37.6326 4.55078 38.2623 4.55078 39.0389C4.55078 39.8154 5.18036 40.4451 5.95703 40.4451Z" fill="url(#paint2_linear_349_24)"/>
<path d="M24.2383 36.2264C25.015 36.2264 25.6445 35.5968 25.6445 34.8201C25.6445 34.0436 25.015 33.4139 24.2383 33.4139H8.76953C7.99286 33.4139 7.36328 34.0436 7.36328 34.8201C7.36328 35.5968 7.99286 36.2264 8.76953 36.2264H24.2383Z" fill="url(#paint3_linear_349_24)"/>
<defs>
<linearGradient id="paint0_linear_349_24" x1="38.3008" y1="17.9451" x2="38.3008" y2="54.5076" gradientUnits="userSpaceOnUse">
<stop stop-color="#491161"/>
<stop offset="1" stop-color="#FF1F9D"/>
</linearGradient>
<linearGradient id="paint1_linear_349_24" x1="7.36328" y1="41.8514" x2="7.36328" y2="44.6639" gradientUnits="userSpaceOnUse">
<stop stop-color="#491161"/>
<stop offset="1" stop-color="#FF1F9D"/>
</linearGradient>
<linearGradient id="paint2_linear_349_24" x1="9.47266" y1="37.6326" x2="9.47266" y2="40.4451" gradientUnits="userSpaceOnUse">
<stop stop-color="#491161"/>
<stop offset="1" stop-color="#FF1F9D"/>
</linearGradient>
<linearGradient id="paint3_linear_349_24" x1="16.5039" y1="33.4139" x2="16.5039" y2="36.2264" gradientUnits="userSpaceOnUse">
<stop stop-color="#491161"/>
<stop offset="1" stop-color="#FF1F9D"/>
</linearGradient>
</defs>
</svg>
