<svg width="14" height="14" viewBox="0 0 14 14" fill="none" xmlns="http://www.w3.org/2000/svg">
<path d="M1.1665 2.91659C1.1665 2.76188 1.22796 2.6135 1.33736 2.50411C1.44675 2.39471 1.59513 2.33325 1.74984 2.33325H12.2498C12.4045 2.33325 12.5529 2.39471 12.6623 2.50411C12.7717 2.6135 12.8332 2.76188 12.8332 2.91659C12.8332 3.07129 12.7717 3.21967 12.6623 3.32906C12.5529 3.43846 12.4045 3.49992 12.2498 3.49992H1.74984C1.59513 3.49992 1.44675 3.43846 1.33736 3.32906C1.22796 3.21967 1.1665 3.07129 1.1665 2.91659ZM3.49984 6.41659C3.49984 6.26188 3.5613 6.1135 3.67069 6.00411C3.78009 5.89471 3.92846 5.83325 4.08317 5.83325H9.9165C10.0712 5.83325 10.2196 5.89471 10.329 6.00411C10.4384 6.1135 10.4998 6.26188 10.4998 6.41659C10.4998 6.5713 10.4384 6.71967 10.329 6.82906C10.2196 6.93846 10.0712 6.99992 9.9165 6.99992H4.08317C3.92846 6.99992 3.78009 6.93846 3.67069 6.82906C3.5613 6.71967 3.49984 6.5713 3.49984 6.41659ZM5.83317 9.33325C5.67846 9.33325 5.53009 9.39471 5.42069 9.50411C5.3113 9.6135 5.24984 9.76188 5.24984 9.91659C5.24984 10.0713 5.3113 10.2197 5.42069 10.3291C5.53009 10.4385 5.67846 10.4999 5.83317 10.4999H8.1665C8.32121 10.4999 8.46959 10.4385 8.57898 10.3291C8.68838 10.2197 8.74984 10.0713 8.74984 9.91659C8.74984 9.76188 8.68838 9.6135 8.57898 9.50411C8.46959 9.39471 8.32121 9.33325 8.1665 9.33325H5.83317Z" fill="#5F6368"/>
</svg>
