<svg width="32" height="32" viewBox="0 0 32 32" fill="none" xmlns="http://www.w3.org/2000/svg">
<rect width="32" height="32" rx="6" fill="white"/>
<path d="M16 18.6666C16.7073 18.6666 17.3856 18.3857 17.8857 17.8856C18.3858 17.3855 18.6667 16.7072 18.6667 16C18.6667 15.2927 18.3858 14.6145 17.8857 14.1144C17.3856 13.6143 16.7073 13.3333 16 13.3333C15.2928 13.3333 14.6145 13.6143 14.1144 14.1144C13.6143 14.6145 13.3334 15.2927 13.3334 16C13.3334 16.7072 13.6143 17.3855 14.1144 17.8856C14.6145 18.3857 15.2928 18.6666 16 18.6666Z" stroke="#491161" stroke-linecap="round" stroke-linejoin="round"/>
<path d="M10 18.6667V13.3333C10 12.4493 10.3512 11.6014 10.9763 10.9763C11.6014 10.3512 12.4493 10 13.3333 10H18.6667C19.5507 10 20.3986 10.3512 21.0237 10.9763C21.6488 11.6014 22 12.4493 22 13.3333V18.6667C22 19.5507 21.6488 20.3986 21.0237 21.0237C20.3986 21.6488 19.5507 22 18.6667 22H13.3333C12.4493 22 11.6014 21.6488 10.9763 21.0237C10.3512 20.3986 10 19.5507 10 18.6667Z" stroke="#491161"/>
<path d="M19.6666 12.3405L19.6737 12.3327" stroke="#491161" stroke-linecap="round" stroke-linejoin="round"/>
</svg>
