<svg width="32" height="32" viewBox="0 0 32 32" fill="none" xmlns="http://www.w3.org/2000/svg">
<rect width="32" height="32" rx="6" fill="white"/>
<path fill-rule="evenodd" clip-rule="evenodd" d="M14.286 13.9793H16.762V15.2126C17.1187 14.5033 18.0334 13.866 19.4074 13.866C22.0414 13.866 22.6667 15.278 22.6667 17.8686V22.6666H20V18.4586C20 16.9833 19.6434 16.1513 18.7354 16.1513C17.476 16.1513 16.9527 17.048 16.9527 18.458V22.6666H14.286V13.9793ZM9.71337 22.5533H12.38V13.866H9.71337V22.5533ZM12.762 11.0333C12.7621 11.2568 12.7178 11.4781 12.6316 11.6844C12.5455 11.8906 12.4191 12.0777 12.26 12.2346C11.9376 12.5551 11.5012 12.7344 11.0467 12.7333C10.593 12.733 10.1576 12.5541 9.83471 12.2353C9.67618 12.0778 9.5503 11.8905 9.46427 11.6843C9.37824 11.478 9.33376 11.2568 9.33337 11.0333C9.33337 10.582 9.51337 10.15 9.83537 9.83131C10.158 9.51209 10.5935 9.33311 11.0474 9.33331C11.502 9.33331 11.938 9.51265 12.26 9.83131C12.5814 10.15 12.762 10.582 12.762 11.0333Z" fill="#491161"/>
</svg>
