<svg width="56" height="56" viewBox="0 0 56 56" fill="none" xmlns="http://www.w3.org/2000/svg">
<path d="M30.1419 38.7104L21.5737 47.2789C21.5737 47.2789 21.5737 47.2791 21.5734 47.2791C21.5734 47.2791 21.5734 47.2793 21.5732 47.2793C18.03 50.8227 12.2644 50.8229 8.72075 47.2793C7.00406 45.5626 6.05888 43.2802 6.05888 40.8528C6.05888 38.4257 7.00406 36.1437 8.72014 34.427C8.72034 34.4268 8.72055 34.4266 8.72075 34.4264L17.289 25.8579C18.4719 24.6748 18.4719 22.7566 17.2888 21.5737C16.1059 20.3908 14.1877 20.3908 13.0046 21.5737L4.43631 30.1422C4.43571 30.1428 4.4351 30.1436 4.43449 30.1442C1.5749 33.0048 0 36.8079 0 40.8528C0 44.8988 1.57551 48.7025 4.43651 51.5635C7.38961 54.5164 11.2683 55.993 15.1472 55.993C19.0261 55.993 22.905 54.5164 25.8577 51.5635C25.8579 51.5635 25.8579 51.5631 25.8579 51.5631L34.4261 42.9947C35.609 41.8118 35.609 39.8935 34.4259 38.7104C33.2433 37.5275 31.3252 37.5275 30.1419 38.7104Z" fill="#5F6368"/>
<path d="M56.0001 15.1472C56.0001 11.1013 54.4244 7.29753 51.5634 4.43653C45.6574 -1.46926 36.0478 -1.46906 30.1422 4.43653C30.142 4.43694 30.1416 4.43714 30.1414 4.43754L21.5734 13.0054C20.3903 14.1883 20.3903 16.1067 21.5734 17.2896C22.1651 17.8814 22.9402 18.1771 23.7156 18.1771C24.4907 18.1771 25.2662 17.8812 25.8576 17.2896L34.4257 8.72178C34.4259 8.72137 34.4263 8.72117 34.4267 8.72077C37.9699 5.17753 43.7355 5.17733 47.2792 8.72077C48.9956 10.4374 49.9412 12.7198 49.9412 15.1472C49.9412 17.5744 48.996 19.8564 47.2798 21.5731L47.2792 21.5737L38.7109 30.1421C37.528 31.325 37.528 33.2433 38.7111 34.4264C39.3026 35.0179 40.078 35.3138 40.8531 35.3138C41.6285 35.3138 42.4038 35.0179 42.9953 34.4264L51.5636 25.8579C51.5642 25.8573 51.5648 25.8565 51.5654 25.8559C54.425 22.9953 56.0001 19.1921 56.0001 15.1472Z" fill="#5F6368"/>
<path d="M17.2892 38.7104C17.8807 39.3019 18.6561 39.5978 19.4312 39.5978C20.2065 39.5978 20.9819 39.3019 21.5734 38.7104L38.7103 21.5734C39.8934 20.3905 39.8934 18.4723 38.7103 17.2892C37.5275 16.1063 35.6092 16.1063 34.4261 17.2892L17.2892 34.4259C16.1061 35.6092 16.1061 37.5275 17.2892 38.7104Z" fill="#5F6368"/>
</svg>
