<svg width="24" height="24" viewBox="0 0 24 24" fill="none" xmlns="http://www.w3.org/2000/svg">
<path d="M22.8029 20.7148H6.75419C6.09274 20.7148 5.55664 20.1787 5.55664 19.5172C5.55664 18.8558 6.09274 18.3197 6.75419 18.3197H22.8025C23.4639 18.3197 24 18.8558 24 19.5172C24 20.1787 23.4643 20.7148 22.8029 20.7148Z" fill="white"/>
<path d="M22.8029 13.1978H6.75419C6.09274 13.1978 5.55664 12.6617 5.55664 12.0002C5.55664 11.3388 6.09274 10.8027 6.75419 10.8027H22.8025C23.4639 10.8027 24 11.3388 24 12.0002C24.0004 12.6617 23.4643 13.1978 22.8029 13.1978Z" fill="white"/>
<path d="M22.8029 5.68077H6.75419C6.09274 5.68077 5.55664 5.14466 5.55664 4.48322C5.55664 3.82178 6.09274 3.28568 6.75419 3.28568H22.8025C23.4639 3.28568 24 3.82178 24 4.48322C24 5.14466 23.4643 5.68077 22.8029 5.68077Z" fill="white"/>
<path d="M1.6083 6.18413C2.49654 6.18413 3.21661 5.46407 3.21661 4.57583C3.21661 3.68759 2.49654 2.96753 1.6083 2.96753C0.720062 2.96753 0 3.68759 0 4.57583C0 5.46407 0.720062 6.18413 1.6083 6.18413Z" fill="white"/>
<path d="M1.6083 13.6085C2.49654 13.6085 3.21661 12.8885 3.21661 12.0002C3.21661 11.112 2.49654 10.3919 1.6083 10.3919C0.720062 10.3919 0 11.112 0 12.0002C0 12.8885 0.720062 13.6085 1.6083 13.6085Z" fill="white"/>
<path d="M1.6083 21.0329C2.49654 21.0329 3.21661 20.3128 3.21661 19.4246C3.21661 18.5363 2.49654 17.8163 1.6083 17.8163C0.720062 17.8163 0 18.5363 0 19.4246C0 20.3128 0.720062 21.0329 1.6083 21.0329Z" fill="white"/>
</svg>
