<svg width="126" height="22" viewBox="0 0 126 22" fill="none" xmlns="http://www.w3.org/2000/svg">
<path d="M11.0001 15.8308L14.8043 18.1317C15.501 18.5533 16.3535 17.93 16.1701 17.1417L15.1618 12.815L18.526 9.89999C19.1401 9.36832 18.8101 8.35999 18.0035 8.29582L13.576 7.91999L11.8435 3.83166C11.5318 3.08916 10.4685 3.08916 10.1568 3.83166L8.42429 7.91082L3.99679 8.28666C3.19013 8.35082 2.86013 9.35916 3.47429 9.89082L6.83846 12.8058L5.83013 17.1325C5.64679 17.9208 6.49929 18.5442 7.19596 18.1225L11.0001 15.8308Z" fill="#7C2B91"/>
<path d="M37.0001 15.8308L40.8043 18.1317C41.501 18.5533 42.3535 17.93 42.1701 17.1417L41.1618 12.815L44.526 9.89999C45.1401 9.36832 44.8101 8.35999 44.0035 8.29582L39.576 7.91999L37.8435 3.83166C37.5318 3.08916 36.4685 3.08916 36.1568 3.83166L34.4243 7.91082L29.9968 8.28666C29.1901 8.35082 28.8601 9.35916 29.4743 9.89082L32.8385 12.8058L31.8301 17.1325C31.6468 17.9208 32.4993 18.5442 33.196 18.1225L37.0001 15.8308Z" fill="#7C2B91"/>
<path d="M63.0001 15.8308L66.8043 18.1317C67.501 18.5533 68.3535 17.93 68.1701 17.1417L67.1618 12.815L70.526 9.89999C71.1401 9.36832 70.8101 8.35999 70.0035 8.29582L65.576 7.91999L63.8435 3.83166C63.5318 3.08916 62.4685 3.08916 62.1568 3.83166L60.4243 7.91082L55.9968 8.28666C55.1901 8.35082 54.8601 9.35916 55.4743 9.89082L58.8385 12.8058L57.8301 17.1325C57.6468 17.9208 58.4993 18.5442 59.196 18.1225L63.0001 15.8308Z" fill="#7C2B91"/>
<path d="M89.0001 15.8308L92.8043 18.1317C93.501 18.5533 94.3535 17.93 94.1701 17.1417L93.1618 12.815L96.526 9.89999C97.1401 9.36832 96.8101 8.35999 96.0035 8.29582L91.576 7.91999L89.8435 3.83166C89.5318 3.08916 88.4685 3.08916 88.1568 3.83166L86.4243 7.91082L81.9968 8.28666C81.1901 8.35082 80.8601 9.35916 81.4743 9.89082L84.8385 12.8058L83.8301 17.1325C83.6468 17.9208 84.4993 18.5442 85.196 18.1225L89.0001 15.8308Z" fill="#7C2B91"/>
<path d="M115 15.8308L118.804 18.1317C119.501 18.5533 120.353 17.93 120.17 17.1417L119.162 12.815L122.526 9.89999C123.14 9.36832 122.81 8.35999 122.003 8.29582L117.576 7.91999L115.843 3.83166C115.532 3.08916 114.468 3.08916 114.157 3.83166L112.424 7.91082L107.997 8.28666C107.19 8.35082 106.86 9.35916 107.474 9.89082L110.838 12.8058L109.83 17.1325C109.647 17.9208 110.499 18.5442 111.196 18.1225L115 15.8308Z" fill="#7C2B91"/>
</svg>
