<svg width="40" height="40" viewBox="0 0 40 40" fill="none" xmlns="http://www.w3.org/2000/svg">
<rect width="40" height="40" rx="8" fill="#F8F9FB"/>
<path d="M20 22.1445C19.7092 22.1445 19.4727 21.908 19.4727 21.6172C19.4727 21.4048 19.599 21.214 19.7947 21.1312C20.0308 21.0312 20.3134 21.1165 20.5702 21.3653C20.7793 21.5679 21.1132 21.5626 21.3158 21.3535C21.5185 21.1443 21.5132 20.8105 21.304 20.6078C21.066 20.3772 20.8013 20.2141 20.5273 20.1221V19.5078C20.5273 19.2166 20.2912 18.9805 20 18.9805C19.7088 18.9805 19.4727 19.2166 19.4727 19.5078V20.1255C19.4427 20.1362 19.4129 20.1474 19.3834 20.16C18.7969 20.4083 18.418 20.9803 18.418 21.6172C18.418 22.4895 19.1277 23.1992 20 23.1992C20.2908 23.1992 20.5273 23.4358 20.5273 23.7266C20.5273 23.9476 20.3879 24.1468 20.1805 24.2224C19.9096 24.321 19.5943 24.1872 19.3154 23.8552C19.1281 23.6321 18.7955 23.6032 18.5725 23.7905C18.3494 23.9778 18.3205 24.3105 18.5078 24.5335C18.7929 24.8729 19.1247 25.1057 19.4727 25.2228V25.8359C19.4727 26.1272 19.7088 26.3633 20 26.3633C20.2913 26.3633 20.5274 26.1272 20.5274 25.8359V25.2181C20.5321 25.2165 20.5368 25.215 20.5415 25.2134C21.1638 24.9867 21.582 24.3892 21.582 23.7266C21.582 22.8542 20.8723 22.1445 20 22.1445Z" fill="#7C2B91"/>
<path d="M24.8839 18.9193C24.2571 18.1482 23.5406 17.5339 22.7541 17.0921C22.8829 16.9397 22.9846 16.761 23.0502 16.5618C23.3077 15.7775 22.9315 14.8459 21.9713 14.5424L23.3174 12.1952C23.4873 11.8989 23.3347 11.5216 23.0072 11.4264C22.0339 11.1435 21.0222 11 20 11C18.9778 11 17.9661 11.1435 16.9928 11.4264C16.6649 11.5218 16.513 11.8993 16.6826 12.1952L18.0287 14.5424C17.0723 14.8444 16.6913 15.7746 16.9499 16.5622C17.0154 16.7609 17.117 16.9395 17.2462 17.0919C16.4596 17.5337 15.743 18.1481 15.1162 18.9193C13.8632 20.4608 13.1445 22.4051 13.1445 24.2539C13.1445 28.0891 16.2048 29 20 29C23.7979 29 26.8555 28.0876 26.8555 24.2539C26.8555 22.4051 26.1368 20.4608 24.8839 18.9193ZM17.9432 12.2733C18.616 12.1281 19.3052 12.0547 20 12.0547C20.6948 12.0547 21.384 12.1281 22.0568 12.2733L20.8955 14.2984C20.3007 14.2153 19.6995 14.2154 19.1046 14.2984L17.9432 12.2733ZM18.2878 15.5667C19.1953 15.269 20.1448 15.2125 21.0679 15.3971C21.069 15.3973 21.0701 15.3975 21.0712 15.3977C21.2864 15.4409 21.5001 15.497 21.7115 15.5664C21.9879 15.6575 22.1389 15.9564 22.0483 16.2323C21.9825 16.4321 21.8086 16.5697 21.6041 16.592C21.0783 16.4274 20.542 16.3438 20 16.3438C19.4591 16.3438 18.9238 16.427 18.3991 16.591C18.1914 16.5696 18.0171 16.431 17.9518 16.2328C17.8611 15.9564 18.0121 15.6575 18.2878 15.5667ZM20 27.9523C15.8798 27.9523 14.1992 26.8759 14.1992 24.2539C14.1992 22.6669 14.848 20.9213 15.9345 19.5845C17.0804 18.1748 18.5242 17.3984 20 17.3984C21.6244 17.3984 23.0453 18.3294 24.0655 19.5845C25.152 20.9213 25.8008 22.6669 25.8008 24.2539C25.8008 26.8759 24.1202 27.9523 20 27.9523Z" fill="#7C2B91"/>
</svg>
