<?xml version="1.0" encoding="UTF-8"?><svg id="Layer_2" xmlns="http://www.w3.org/2000/svg" xmlns:xlink="http://www.w3.org/1999/xlink" viewBox="0 0 1609.66 260.99"><defs><style>.cls-1{fill:url(#linear-gradient);}.cls-1,.cls-2{stroke-width:0px;}.cls-2{fill:#fff;}</style><linearGradient id="linear-gradient" x1="96.14" y1="15.44" x2="170.81" y2="265.53" gradientUnits="userSpaceOnUse"><stop offset=".01" stop-color="#ffc61b"/><stop offset=".2" stop-color="#ed2d92"/><stop offset=".77" stop-color="#7d2a90"/><stop offset=".9" stop-color="#13c2e8"/></linearGradient></defs><g id="final-all"><g id="color-inverse"><path id="final" class="cls-1" d="M256.39,85.97c-4.89-4.61-11.7-4.49-11.7-4.49h-64.81V0h-82.05s-6.53.02-11.52,4.69c-5.1,4.78-4.62,11.96-4.62,11.96v64.83H0v81.43s-.43,6.62,4.64,11.74c5.04,5.08,11.82,4.74,11.82,4.74,0,0,27.18,1.41,49.6-14.95,35.71-26.05,31.76-66.42,31.76-66.42h65.55v64.86s-35.42-1.77-62.2,29.87c-26.71,31.55-18.48,68.23-18.48,68.23h80.7s6.87,0,11.34-4.97c4.68-5.21,5.14-11.34,5.14-11.34v-65.28h81.12v-81.43s-.1-7.76-4.61-12.01h0ZM81.49,102.73c-.52,32.02-26,58.72-60.24,60.22h0c-2.6-.03-4.7-2.12-4.7-4.73v-60.19h64.93v4.7h0ZM158.59,244.55h-60.25c0-35.87,29.08-64.95,64.95-64.95h0v60.25c0,2.59-2.1,4.7-4.7,4.7ZM163.39,81.48h-65.4V21.09c0-2.56,2.09-4.64,4.67-4.64h60.74v65.04ZM244.66,162.91h-64.78v-64.88h60.15c2.56,0,4.63,1.95,4.63,4.51v60.37Z"/><path class="cls-2" d="M326.52,182.22V59.21c0-5.59,3.84-9.46,9.85-9.46h39.41c36.77,0,57.43,15.48,57.43,43.01s-19.94,43.66-58.39,43.66h-30.28v45.81c0,4.3-2.64,7.31-7.93,7.31h-2.4c-5.05,0-7.69-2.58-7.69-7.31ZM414.95,93.19c0-19.36-13.46-29.68-39.41-29.68h-31v59.57h30.76c26.19,0,39.65-10.75,39.65-29.89Z"/><path class="cls-2" d="M514.91,95.13c0,6.24-4.81,8.82-5.29,8.39-2.88-2.58-7.45-4.3-13.7-4.3-18.74,0-27.39,16.56-27.39,42.37v40.65c0,5.38-3.12,7.31-7.45,7.31h-1.92c-4.81,0-7.93-1.72-7.93-7.31v-95.05c0-.43,2.64-1.72,6.25-1.72,4.81,0,9.13,2.15,10.09,10.32.24,3.66.48,7.31.48,11.18,4.57-15.48,15.14-23.01,29.8-23.01,10.33,0,17.06,4.52,17.06,11.18Z"/><path class="cls-2" d="M575.22,83.94c33.88,0,57.91,22.58,57.91,53.98s-24.03,53.33-58.15,53.33-58.15-22.58-58.15-53.76,24.03-53.55,58.39-53.55ZM575.22,97.06c-24.03,0-41.57,16.77-41.57,40.43s17.54,40.65,41.57,40.65,41.09-16.77,41.09-40.22-17.06-40.86-41.09-40.86Z"/><path class="cls-2" d="M637.69,89.96c0-1.29,4.08-4.73,9.13-4.73,4.57.21,8.41,2.37,11.29,9.68l32.92,80.22,33.16-80.22c2.88-7.53,7.21-9.68,11.29-9.46,5.05.21,8.65,3.23,8.65,4.52l-42.05,94.63c-1.44,3.87-4.81,5.38-11.29,5.38s-9.37-1.29-11.05-4.95l-42.05-95.06Z"/><path class="cls-2" d="M777.78,44.16c6.97,0,11.05,3.44,11.05,9.89s-4.33,9.68-11.29,9.68-10.81-3.44-10.81-9.68,4.08-9.89,11.05-9.89ZM768.89,92.98c0-5.59,3.12-7.53,7.69-7.53h1.92c4.57,0,7.69,1.72,7.69,7.53v89.25c0,5.59-3.12,7.31-7.69,7.31h-1.92c-4.57,0-7.69-1.72-7.69-7.31v-89.25Z"/><path class="cls-2" d="M810.94,137.49c0-31.83,22.59-53.55,53.35-53.55,20.42,0,34.84,9.25,41.33,19.79v-59.79c0-.65,2.64-1.72,6.01-1.72,5.77,0,11.29,2.58,11.29,13.76v126.24c0,5.59-3.12,7.31-7.69,7.31h-1.68c-4.33,0-7.45-1.72-7.45-6.88-.24-4.3-.24-8.6-.24-13.33-8.17,13.12-21.87,21.94-42.05,21.94-30.28,0-52.87-21.5-52.87-53.76ZM905.61,121.58c-6.25-14.84-18.98-24.52-38.45-24.52-23.07,0-38.93,16.13-38.93,40.43s16.1,40.65,38.69,40.65c21.39,0,38.69-14.41,38.69-33.55v-23.01Z"/><path class="cls-2" d="M1007.98,83.94c31.96,0,52.62,20.22,52.62,50.54v1.5c0,3.66-1.68,4.95-6.01,4.95h-86.75c0,.86,0,1.94.24,3.01,2.16,20.65,18.74,34.41,41.81,34.41,21.39,0,31.48-9.03,37.25-18.92.96-.43,9.85,1.29,9.85,8.17,0,3.23-2.88,8.17-9.13,12.69-7.21,5.59-20.42,10.97-38.21,10.97-34.84,0-58.39-21.72-58.39-53.12s23.79-54.19,56.71-54.19ZM1007.98,96.42c-20.91,0-36.53,13.76-39.65,33.33h75.21c-.96-20-14.66-33.33-35.56-33.33Z"/><path class="cls-2" d="M1157.19,95.13c0,6.24-4.81,8.82-5.29,8.39-2.88-2.58-7.45-4.3-13.7-4.3-18.74,0-27.39,16.56-27.39,42.37v40.65c0,5.38-3.12,7.31-7.45,7.31h-1.92c-4.81,0-7.93-1.72-7.93-7.31v-95.05c0-.43,2.64-1.72,6.25-1.72,4.81,0,9.13,2.15,10.09,10.32.24,3.66.48,7.31.48,11.18,4.57-15.48,15.14-23.01,29.8-23.01,10.33,0,17.06,4.52,17.06,11.18Z"/><path class="cls-2" d="M1187.71,182.22V58.78c0-5.81,3.12-9.68,8.89-9.68h3.36c5.53,0,8.17,2.37,11.53,6.88l84.1,107.31V56.42c0-4.95,2.16-7.31,7.45-7.31h2.16c5.05,0,7.45,2.37,7.45,7.31v123.66c0,5.81-3.36,9.46-8.65,9.46h-1.44c-5.77,0-7.45-1.51-10.33-5.38l-87.71-111.61v109.68c0,4.73-2.4,7.31-7.45,7.31h-2.16c-5.05,0-7.21-2.58-7.21-7.31Z"/><path class="cls-2" d="M1391.95,83.94c33.88,0,57.91,22.58,57.91,53.98s-24.03,53.33-58.15,53.33-58.15-22.58-58.15-53.76,24.03-53.55,58.39-53.55ZM1391.95,97.06c-24.03,0-41.57,16.77-41.57,40.43s17.54,40.65,41.57,40.65,41.09-16.77,41.09-40.22-17.06-40.86-41.09-40.86Z"/><path class="cls-2" d="M1487.34,184.59l-27.87-94.84c-.24-.86,5.05-4.52,9.85-4.52,3.84.21,7.93,2.37,9.61,9.46l20.42,79.57,24.27-67.96c1.2-4.09,4.33-5.81,11.29-5.81s9.85,1.72,11.29,5.81l24.03,67.74,20.19-79.36c1.68-7.53,6.25-9.46,9.85-9.25,5.05,0,9.37,3.66,9.37,4.3l-27.88,94.84c-.96,3.87-4.08,5.38-11.29,5.38s-9.37-1.5-11.05-5.81l-24.75-67.31-25.23,67.31c-1.44,4.3-3.6,5.81-10.81,5.81s-10.09-1.5-11.29-5.38Z"/></g></g></svg>