<svg width="74" height="70" viewBox="0 0 74 70" fill="none" xmlns="http://www.w3.org/2000/svg">
<path d="M32.2786 36.7861C32.2786 30.5458 28.7185 25.1219 23.5229 22.4375C26.3421 20.2357 28.1599 16.8083 28.1599 12.9622C28.1599 6.33397 22.7674 0.94165 16.1394 0.94165C9.51131 0.94165 4.11885 6.33411 4.11885 12.9622C4.11885 16.8083 5.93662 20.2357 8.75585 22.4375C3.56009 25.1219 0 30.5458 0 36.7861V38.9541H32.2786V36.7861ZM4.53554 34.6182C5.55636 29.1417 10.3714 24.9828 16.1394 24.9828C21.9073 24.9828 26.7222 29.1419 27.7432 34.6182H4.53554ZM8.45465 12.9622C8.45465 8.7248 11.902 5.27759 16.1392 5.27759C20.3764 5.27759 23.8238 8.72495 23.8238 12.9622C23.8238 17.1994 20.3764 20.6467 16.1392 20.6467C11.902 20.6467 8.45465 17.1995 8.45465 12.9622Z" fill="url(#paint0_linear_440_3)"/>
<path d="M61.2557 47.3944C65.5318 44.5976 68.3633 39.7672 68.3633 34.2873C68.3633 25.6572 61.3421 18.636 52.712 18.636C44.0819 18.636 37.0607 25.6572 37.0607 34.2873C37.0607 39.7672 39.8923 44.5976 44.1685 47.3944C36.6722 50.6924 31.4243 58.1893 31.4243 66.8904V69.0584H73.9999V66.8904C73.9999 58.1893 68.752 50.6922 61.2557 47.3944ZM35.8981 64.7224C36.9656 56.395 44.099 49.9386 52.712 49.9386C61.3251 49.9386 68.4584 56.3951 69.5259 64.7224H35.8981ZM64.0274 34.2873C64.0274 40.5266 58.9513 45.6027 52.712 45.6027C46.4728 45.6027 41.3967 40.5266 41.3967 34.2873C41.3967 28.0481 46.4728 22.972 52.712 22.972C58.9513 22.972 64.0274 28.0481 64.0274 34.2873Z" fill="url(#paint1_linear_440_3)"/>
<path d="M17.5305 53.1369L20.2894 55.8959H4.33594V43.424H0V60.2318H20.2894L17.5305 62.9909L20.5964 66.0569L28.5894 58.0639L20.5964 50.071L17.5305 53.1369Z" fill="url(#paint2_linear_440_3)"/>
<defs>
<linearGradient id="paint0_linear_440_3" x1="16.1393" y1="0.94165" x2="16.1393" y2="38.9541" gradientUnits="userSpaceOnUse">
<stop stop-color="#7C2B91"/>
<stop offset="1" stop-color="#FF1F9D"/>
</linearGradient>
<linearGradient id="paint1_linear_440_3" x1="52.7121" y1="18.636" x2="52.7121" y2="69.0584" gradientUnits="userSpaceOnUse">
<stop stop-color="#7C2B91"/>
<stop offset="1" stop-color="#FF1F9D"/>
</linearGradient>
<linearGradient id="paint2_linear_440_3" x1="14.2947" y1="43.424" x2="14.2947" y2="66.0569" gradientUnits="userSpaceOnUse">
<stop stop-color="#7C2B91"/>
<stop offset="1" stop-color="#FF1F9D"/>
</linearGradient>
</defs>
</svg>
