<svg width="56" height="56" viewBox="0 0 56 56" fill="none" xmlns="http://www.w3.org/2000/svg">
<path d="M50.2206 5.74621C50.7053 6.21792 50.8744 6.9265 50.6558 7.5663L35.4952 51.8996C35.2441 52.6332 34.5404 53.1144 33.7657 53.0819C32.9908 53.0493 32.33 52.5105 32.1417 51.7585L26.573 29.5162L4.3341 25.2128C3.56403 25.0637 2.98716 24.4207 2.9225 23.639C2.85785 22.8573 3.3212 22.1281 4.05632 21.8546L48.3897 5.3599C49.0234 5.1241 49.7362 5.2745 50.2206 5.74621ZM11.1197 22.961L28.3323 26.2915C28.9999 26.4208 29.5324 26.925 29.6976 27.5847L34.0989 45.1654L46.1492 9.92789L11.1197 22.961Z" fill="white"/>
<path d="M35.8464 20.1727C36.5299 20.8561 36.5299 21.9642 35.8464 22.6476L29.2468 29.2472C28.5634 29.9306 27.4553 29.9306 26.7719 29.2472C26.0884 28.5638 26.0884 27.4557 26.7719 26.7722L33.3715 20.1727C34.0549 19.4893 35.163 19.4893 35.8464 20.1727Z" fill="white"/>
</svg>
