<svg width="14" height="14" viewBox="0 0 14 14" fill="none" xmlns="http://www.w3.org/2000/svg">
<path d="M9.32811 0.603838C9.70609 0.385731 10.1377 0.277992 10.5738 0.292859C11.0099 0.307725 11.4332 0.444602 11.7954 0.687941C12.1577 0.93128 12.4444 1.27133 12.6231 1.66946C12.8018 2.0676 12.8652 2.50786 12.8062 2.94025C12.7472 3.37264 12.5682 3.77981 12.2894 4.11554C12.0106 4.45126 11.6432 4.70207 11.229 4.83948C10.8148 4.97689 10.3704 4.99539 9.94622 4.89289C9.52204 4.79038 9.1351 4.57097 8.82936 4.25959L5.16603 6.37475C5.2232 6.58203 5.25139 6.79048 5.25061 7.00009C5.25061 7.20892 5.2232 7.4195 5.16603 7.62542L8.82936 9.74059C9.2277 9.33664 9.7595 9.09156 10.3254 9.05116C10.8912 9.01076 11.4525 9.1778 11.9042 9.52106C12.3558 9.86433 12.6671 10.3603 12.7797 10.9163C12.8923 11.4724 12.7986 12.0504 12.516 12.5423C12.2326 13.0351 11.7789 13.4075 11.2404 13.5895C10.7018 13.7715 10.1152 13.7506 9.59098 13.5307C9.06671 13.3108 8.64075 12.9071 8.39311 12.3954C8.14546 11.8836 8.09316 11.2991 8.24603 10.7515L4.5827 8.63575C4.25793 8.96648 3.84205 9.19305 3.38806 9.28657C2.93406 9.3801 2.4625 9.33636 2.03346 9.16092C1.60441 8.98549 1.2373 8.6863 0.978906 8.30147C0.720509 7.91665 0.58252 7.46362 0.58252 7.00009C0.58252 6.53656 0.720509 6.08352 0.978906 5.6987C1.2373 5.31388 1.60441 5.01469 2.03346 4.83925C2.4625 4.66382 2.93406 4.62008 3.38806 4.7136C3.84205 4.80713 4.25793 5.03369 4.5827 5.36442L8.24603 3.24925C8.10758 2.75074 8.13874 2.22035 8.33462 1.74148C8.5305 1.2626 8.87998 0.862417 9.32811 0.603838ZM11.5051 2.04175C11.4291 1.908 11.3273 1.79061 11.2057 1.69634C11.0841 1.60207 10.9451 1.53279 10.7966 1.49248C10.6481 1.45216 10.4931 1.44162 10.3405 1.46145C10.188 1.48128 10.0408 1.5311 9.90757 1.60803C9.77432 1.68496 9.65761 1.78749 9.56415 1.90971C9.47069 2.03193 9.40233 2.17143 9.363 2.32018C9.32367 2.46893 9.31416 2.62399 9.335 2.77643C9.35584 2.92888 9.40663 3.07569 9.48445 3.20842C9.64026 3.4742 9.89487 3.66755 10.1927 3.7463C10.4906 3.82504 10.8075 3.78278 11.0743 3.62874C11.3411 3.4747 11.5361 3.22138 11.6168 2.92406C11.6975 2.62675 11.6574 2.30957 11.5051 2.04175ZM1.79145 7.3075C1.83873 7.47954 1.92481 7.63846 2.04307 7.77205C2.16132 7.90565 2.30862 8.01037 2.47365 8.07818C2.63867 8.14599 2.81704 8.17509 2.99506 8.16325C3.17309 8.1514 3.34603 8.09892 3.50061 8.00984C3.68934 7.90075 3.84373 7.74098 3.94629 7.54862C4.04884 7.35627 4.09545 7.13903 4.08083 6.92153C4.06622 6.70404 3.99096 6.49499 3.8636 6.31809C3.73623 6.14118 3.56185 6.0035 3.36022 5.92065C3.1586 5.83779 2.93779 5.81309 2.72284 5.84933C2.50789 5.88556 2.30739 5.9813 2.14407 6.12568C1.98076 6.27006 1.86116 6.4573 1.79883 6.66619C1.7365 6.87507 1.73395 7.09724 1.79145 7.3075ZM11.0781 10.3653C10.9454 10.2875 10.7986 10.2367 10.6461 10.2159C10.4937 10.195 10.3386 10.2046 10.1899 10.2439C10.0411 10.2832 9.90163 10.3516 9.7794 10.445C9.65718 10.5385 9.55466 10.6552 9.47772 10.7885C9.40079 10.9217 9.35098 11.0688 9.33114 11.2214C9.31131 11.374 9.32186 11.529 9.36217 11.6775C9.40248 11.826 9.47177 11.965 9.56604 12.0866C9.6603 12.2082 9.77769 12.31 9.91145 12.386C10.1793 12.5383 10.4964 12.5784 10.7938 12.4977C11.0911 12.417 11.3444 12.222 11.4984 11.9551C11.6525 11.6883 11.6947 11.3714 11.616 11.0736C11.5372 10.7758 11.3439 10.5211 11.0781 10.3653Z" fill="#5F6368"/>
</svg>
