<svg width="40" height="40" viewBox="0 0 40 40" fill="none" xmlns="http://www.w3.org/2000/svg">
<rect width="40" height="40" rx="8" fill="#F8F9FB"/>
<path d="M27.1275 25.8436L26.3237 15.7145C26.2736 15.062 25.7217 14.5507 25.0672 14.5507H23.4794V14.4794C23.4794 12.5608 21.9186 11 20.0001 11C18.0815 11 16.5207 12.5608 16.5207 14.4794V14.5507H14.933C14.2785 14.5507 13.7265 15.0619 13.6766 15.7132L12.8725 25.845C12.8103 26.6562 13.0917 27.4638 13.6446 28.0607C14.1975 28.6576 14.9812 29 15.7948 29H24.2053C25.0189 29 25.8026 28.6576 26.3555 28.0607C26.9084 27.4638 27.1898 26.6562 27.1275 25.8436ZM17.575 14.4794C17.575 13.1422 18.6629 12.0543 20.0001 12.0543C21.3372 12.0543 22.4251 13.1422 22.4251 14.4794V14.5507H17.575V14.4794ZM25.582 27.3443C25.2228 27.7321 24.7339 27.9457 24.2053 27.9457H15.7948C15.2662 27.9457 14.7774 27.7321 14.4181 27.3443C14.0589 26.9565 13.8834 26.4526 13.9237 25.927L14.7277 15.7951C14.7359 15.6885 14.826 15.6051 14.933 15.6051H16.5207V16.9036C16.5207 17.1947 16.7567 17.4307 17.0479 17.4307C17.339 17.4307 17.575 17.1947 17.575 16.9036V15.6051H22.4251V16.9036C22.4251 17.1947 22.6611 17.4307 22.9523 17.4307C23.2434 17.4307 23.4794 17.1947 23.4794 16.9036V15.6051H25.0672C25.1741 15.6051 25.2642 15.6886 25.2725 15.7965L26.0764 25.9256C26.1168 26.4526 25.9412 26.9565 25.582 27.3443Z" fill="#7C2B91"/>
<path d="M22.3749 19.9398C22.1691 19.7339 21.8353 19.7339 21.6294 19.9398L19.2755 22.2937L18.3704 21.3886C18.1645 21.1827 17.8307 21.1827 17.6249 21.3886C17.419 21.5945 17.419 21.9282 17.6249 22.1341L18.9028 23.412C19.0057 23.515 19.1406 23.5665 19.2755 23.5665C19.4103 23.5665 19.5453 23.515 19.6482 23.412L22.3749 20.6854C22.5808 20.4795 22.5808 20.1457 22.3749 19.9398Z" fill="#7C2B91"/>
</svg>
