<svg width="48" height="48" viewBox="0 0 48 48" fill="none" xmlns="http://www.w3.org/2000/svg">
<rect x="0.5" y="0.5" width="47" height="47" rx="7.5" stroke="white"/>
<path d="M17.2199 27.7125C16.5049 24.8525 16.1474 23.4233 16.8982 22.4617C17.6491 21.5 19.1232 21.5 22.0707 21.5H25.9291C28.8774 21.5 30.3507 21.5 31.1016 22.4617C31.8524 23.4233 31.4949 24.8533 30.7799 27.7125C30.3249 29.5317 30.0982 30.4408 29.4199 30.9708C28.7416 31.5 27.8041 31.5 25.9291 31.5H22.0707C20.1957 31.5 19.2582 31.5 18.5799 30.9708C17.9016 30.4408 17.6741 29.5317 17.2199 27.7125Z" stroke="white" stroke-width="1.25"/>
<path opacity="0.5" d="M30.25 21.9166L29.6583 19.7458C29.43 18.9083 29.3158 18.4899 29.0817 18.1741C28.8482 17.8603 28.5311 17.6186 28.1667 17.4766C27.8 17.3333 27.3667 17.3333 26.5 17.3333M17.75 21.9166L18.3417 19.7458C18.57 18.9083 18.6842 18.4899 18.9183 18.1741C19.1518 17.8603 19.4689 17.6186 19.8333 17.4766C20.2 17.3333 20.6333 17.3333 21.5 17.3333" stroke="white" stroke-width="1.25"/>
<path d="M21.5 17.3333C21.5 17.1123 21.5878 16.9004 21.7441 16.7441C21.9004 16.5878 22.1123 16.5 22.3333 16.5H25.6667C25.8877 16.5 26.0996 16.5878 26.2559 16.7441C26.4122 16.9004 26.5 17.1123 26.5 17.3333C26.5 17.5543 26.4122 17.7663 26.2559 17.9226C26.0996 18.0789 25.8877 18.1667 25.6667 18.1667H22.3333C22.1123 18.1667 21.9004 18.0789 21.7441 17.9226C21.5878 17.7663 21.5 17.5543 21.5 17.3333Z" stroke="white" stroke-width="1.25"/>
</svg>
