<svg width="32" height="32" viewBox="0 0 32 32" fill="none" xmlns="http://www.w3.org/2000/svg">
<rect width="32" height="32" rx="6" fill="white"/>
<path d="M19.0666 11.88C18.6109 11.3597 18.3598 10.6916 18.36 10H16.3V18.2667C16.2841 18.714 16.0952 19.1377 15.7732 19.4486C15.4511 19.7595 15.0209 19.9333 14.5733 19.9333C13.6266 19.9333 12.84 19.16 12.84 18.2C12.84 17.0533 13.9466 16.1933 15.0866 16.5467V14.44C12.7866 14.1333 10.7733 15.92 10.7733 18.2C10.7733 20.42 12.6133 22 14.5666 22C16.66 22 18.36 20.3 18.36 18.2V14.0067C19.1953 14.6066 20.1982 14.9284 21.2266 14.9267V12.8667C21.2266 12.8667 19.9733 12.9267 19.0666 11.88Z" fill="#491161"/>
</svg>
