<svg width="25" height="24" viewBox="0 0 25 24" fill="none" xmlns="http://www.w3.org/2000/svg">
<g clip-path="url(#clip0_194_246)">
<path d="M12.5004 12C13.8522 12 14.9481 10.9041 14.9481 9.55232C14.9481 8.20051 13.8522 7.10464 12.5004 7.10464C11.1486 7.10464 10.0527 8.20051 10.0527 9.55232C10.0527 10.9041 11.1486 12 12.5004 12Z" stroke="white" stroke-width="1.40625" stroke-miterlimit="10" stroke-linecap="round" stroke-linejoin="round"/>
<path d="M17.3951 16.8953C17.3951 14.1916 15.2034 12 12.4998 12C9.79618 12 7.60449 14.1916 7.60449 16.8953" stroke="white" stroke-width="1.40625" stroke-miterlimit="10" stroke-linecap="round" stroke-linejoin="round"/>
<path d="M22.2912 16.8953V5.59843C22.2912 5.19891 22.1325 4.81594 21.85 4.53352C21.5675 4.25072 21.1844 4.09219 20.785 4.09219C17.1376 4.09219 7.86359 4.09219 4.2162 4.09219C3.81668 4.09219 3.43357 4.25072 3.15115 4.53352C2.86863 4.81594 2.70996 5.19891 2.70996 5.59843C2.70996 8.98299 2.70996 16.8953 2.70996 16.8953" stroke="white" stroke-width="1.40625" stroke-miterlimit="10" stroke-linecap="round" stroke-linejoin="round"/>
<path d="M14.7594 16.8954C14.5183 17.1363 14.1913 17.2719 13.8503 17.2719H11.1497C10.8088 17.2719 10.4818 17.1363 10.2407 16.8954H10.2407H1.20312V18.4016C1.20312 18.8011 1.3618 19.1841 1.64431 19.4665C1.92678 19.7493 2.30989 19.9078 2.70936 19.9078C6.81739 19.9078 18.1826 19.9078 22.2906 19.9078C22.6901 19.9078 23.0732 19.7493 23.3556 19.4665C23.6382 19.1841 23.7968 18.8011 23.7968 18.4016C23.7968 17.6484 23.7968 16.8954 23.7968 16.8954H14.7594Z" stroke="white" stroke-width="1.40625" stroke-miterlimit="10" stroke-linecap="round" stroke-linejoin="round"/>
</g>
<defs>
<clipPath id="clip0_194_246">
<rect width="24" height="24" fill="white" transform="translate(0.5)"/>
</clipPath>
</defs>
</svg>
